<?xml version='1.0' encoding='utf-8'?>
<!DOCTYPE svg PUBLIC '-//W3C//DTD SVG 1.1//EN' 'http://www.w3.org/Graphics/SVG/1.1/DTD/svg11.dtd'>
<svg version="1.1" xmlns="http://www.w3.org/2000/svg" viewBox="0 0 512 512" xmlns:xlink="http://www.w3.org/1999/xlink" enable-background="new 0 0 512 512">
  <g>
    <g>
      <path d="m500.6,459.3l-45.4-414.9c-2.1-18.8-19-33.4-38-33.4h-322.5c-20,0-35.8,14.6-38,33.4l-45.3,414.9c-3.5,23.3 14.2,41.7 38,41.7h413.2c22.1,0 41.5-18.7 38-41.7zm-38,20.8h-413.2c-9,0-18.9-6.2-16.9-18.8l45.3-413.8c1.1-9.4 8.4-15.6 16.9-15.6v-1h322.6c8.4,0 15.8,7.3 16.9,15.6l45.3,414.9c1.8,9.2-4.7,18.7-16.9,18.7z"/>
      <path d="m348.7,70.3c-5.9,0-10.6,4.7-10.6,10.5v101.6c0,44.8-36.8,81.2-82.1,81.2-45.3,0-82.1-36.4-82.1-81.2v-101.3c0-5.8-4.8-10.5-10.6-10.5-5.9,0-10.6,4.7-10.6,10.5v101.3c0,56.4 46.4,102.2 103.4,102.2s103.4-45.9 103.4-102.2v-101.5c-0.1-5.9-4.9-10.6-10.8-10.6z"/>
    </g>
  </g>
</svg>
