<?xml version="1.0" encoding="iso-8859-1"?>
<!-- Generator: Adobe Illustrator 17.1.0, SVG Export Plug-In . SVG Version: 6.00 Build 0)  -->
<!DOCTYPE svg PUBLIC "-//W3C//DTD SVG 1.1//EN" "http://www.w3.org/Graphics/SVG/1.1/DTD/svg11.dtd">
<svg version="1.1" id="Capa_1" xmlns="http://www.w3.org/2000/svg" xmlns:xlink="http://www.w3.org/1999/xlink" x="0px" y="0px"
	 viewBox="0 0 475.8 475.8" style="enable-background:new 0 0 475.8 475.8;" xml:space="preserve">
<path d="M413.427,405.909l-21.164-28.218c-4.66-6.215-7.227-13.915-7.227-21.683v-97.164c0-78.616-61.976-143.029-139.637-146.947
	V98.213c23.688-3.624,41.891-24.137,41.891-48.823C287.291,22.157,265.134,0,237.9,0s-49.391,22.157-49.391,49.391
	c0,24.685,18.203,45.198,41.891,48.823v13.685c-77.661,3.918-139.637,68.331-139.637,146.947v97.164
	c0,7.769-2.566,15.469-7.227,21.682l-21.164,28.218c-4.003,5.337-4.636,12.359-1.652,18.326c2.983,5.967,8.981,9.674,15.652,9.674
	h126.101v6.463c0,19.535,15.893,35.427,35.427,35.427c19.535,0,35.428-15.893,35.428-35.427v-6.463h126.1
	c6.671,0,12.669-3.707,15.652-9.674C418.063,418.268,417.43,411.246,413.427,405.909z M203.509,49.391
	C203.509,30.428,218.937,15,237.9,15s34.391,15.428,34.391,34.391c0,16.387-11.524,30.125-26.891,33.557v-5.63
	c0-4.142-3.357-7.5-7.5-7.5s-7.5,3.358-7.5,7.5v5.63C215.033,79.515,203.509,65.778,203.509,49.391z M258.328,440.373
	c0,11.264-9.164,20.427-20.428,20.427s-20.427-9.164-20.427-20.427v-6.463h40.854V440.373z M401.664,417.527
	c-0.259,0.517-0.892,1.382-2.236,1.382H76.373c-1.345,0-1.978-0.866-2.236-1.382c-0.258-0.516-0.57-1.542,0.236-2.618l21.164-28.218
	c4.969-6.625,8.254-14.445,9.572-22.6h230.536c4.143,0,7.5-3.358,7.5-7.5s-3.357-7.5-7.5-7.5H105.763v-90.246
	c0-72.86,59.276-132.136,132.137-132.136s132.137,59.276,132.137,132.136v97.164c0,10.991,3.632,21.888,10.227,30.682l21.164,28.218
	C402.234,415.984,401.921,417.011,401.664,417.527z"/>
<g>
</g>
<g>
</g>
<g>
</g>
<g>
</g>
<g>
</g>
<g>
</g>
<g>
</g>
<g>
</g>
<g>
</g>
<g>
</g>
<g>
</g>
<g>
</g>
<g>
</g>
<g>
</g>
<g>
</g>
</svg>
