<?xml version="1.0" encoding="iso-8859-1"?>
<!-- Generator: Adobe Illustrator 19.0.0, SVG Export Plug-In . SVG Version: 6.00 Build 0)  -->
<svg version="1.1" id="Layer_1" xmlns="http://www.w3.org/2000/svg" xmlns:xlink="http://www.w3.org/1999/xlink" x="0px" y="0px"
	 viewBox="0 0 512 512" style="enable-background:new 0 0 512 512;" xml:space="preserve">
<g>
	<g>
		<path d="M486.4,0H281.6c-6.784,0-13.295,2.697-18.099,7.501l-256,256c-10.001,10.001-10.001,26.197,0,36.198l204.8,204.8
			c10.001,10.001,26.197,10.001,36.198,0l256-256c4.796-4.796,7.501-11.315,7.501-18.099V25.6C512,11.46,500.54,0,486.4,0z
			 M486.4,230.4l-256,256L25.6,281.6l256-256h204.8V230.4z"/>
	</g>
</g>
<g>
	<g>
		<path d="M409.6,51.2c-28.279,0-51.2,22.929-51.2,51.2s22.921,51.2,51.2,51.2c28.271,0,51.2-22.929,51.2-51.2
			S437.871,51.2,409.6,51.2z M409.6,128c-14.148,0-25.6-11.46-25.6-25.6c0-14.14,11.452-25.6,25.6-25.6
			c14.14,0,25.6,11.46,25.6,25.6C435.2,116.54,423.74,128,409.6,128z"/>
	</g>
</g>
<g>
	<g>
		<path d="M290.227,292.301c-9.515-7.953-24.687-14.797-46.336-20.949v-77.124c8.166,0.896,14.916,3.251,20.079,7.023
			c7.697,5.751,11.716,14.097,12.254,25.378c0,4.275,1.323,7.748,3.925,10.325c4.983,5.026,13.073,4.574,17.109,0
			c2.603-2.577,3.925-6.05,3.925-10.325c0-16.247-5.623-29.602-16.759-39.697c-10.334-9.148-23.953-14.421-40.525-15.676v-12.834
			h-0.009c0-6.699-4.113-10.701-11-10.701c-6.81,0-10.709,3.9-10.709,10.701v12.774c-16.589,1.101-30.49,6.374-41.387,15.727
			c-12.715,11.051-19.149,25.899-19.149,44.151c0,15.727,5.76,28.604,17.109,38.246c9.549,8.201,24.149,14.771,43.426,19.575v82.85
			c-11.699-1.604-20.975-5.171-27.597-10.65c-9.404-7.927-14.071-19.977-13.884-35.823c0-4.275-1.212-7.646-3.499-9.924
			c-4.429-4.898-12.51-4.753-16.64-0.128c-2.415,2.398-3.635,5.803-3.635,10.052c0,24.798,7.475,43.247,22.289,54.929
			c10.146,7.603,24.585,12.476,42.974,14.498v18.577c0,6.997,3.9,10.999,10.709,10.999c6.989,0,10.999-4.002,10.999-10.999v-18.253
			c17.212-1.826,31.915-7.851,43.733-17.929c13.5-11.648,20.335-26.701,20.335-44.749
			C307.968,315.426,301.995,301.952,290.227,292.301z M222.165,265.378c-12.314-3.601-21.316-8.277-26.769-13.901
			c-5.726-5.897-8.516-13.252-8.516-22.477c0-11.196,4.198-19.797,12.834-26.274c6.289-4.676,13.824-7.603,22.451-8.721V265.378z
			 M268.109,361.873c-6.827,5.026-14.959,8.329-24.226,9.796v-76.348c14.268,3.9,24.115,8.252,29.303,12.954
			c6.127,5.402,9.225,14.097,9.225,25.847C282.411,345.899,277.751,354.97,268.109,361.873z"/>
	</g>
</g>
<g>
</g>
<g>
</g>
<g>
</g>
<g>
</g>
<g>
</g>
<g>
</g>
<g>
</g>
<g>
</g>
<g>
</g>
<g>
</g>
<g>
</g>
<g>
</g>
<g>
</g>
<g>
</g>
<g>
</g>
</svg>
